<?xml version="1.0" encoding="UTF-8"?>
<svg id="Layer_1" xmlns="http://www.w3.org/2000/svg" version="1.1" viewBox="0 0 20 20">
  <!-- Generator: Adobe Illustrator 30.0.0, SVG Export Plug-In . SVG Version: 2.1.1 Build 104)  -->
  <path d="M13.33,2.05c1.72-.21,3.7.57,4.58,2.11,2.84,5.02-3.33,7.87-5.93,11.16-.69.69-1.74-.25-1.2-1.04l5.9-5.99c.99-1.6.17-3.75-1.52-4.46-1.59-.67-2.67.11-3.8,1.14-2.65,2.39-5.1,5.14-7.73,7.57-.89.99-1,2.31-.08,3.33.58.65,1.12.7,1.89.3,2.3-2,4.36-4.29,6.55-6.42.27-.49-.16-1.14-.69-1.2-.26-.03-.53.22-.72.37-1.78,1.46-3.32,3.62-5.15,5.07-.63.42-1.35-.15-1.2-.87.03-.13.35-.5.45-.63,1.1-1.31,3.35-3.53,4.66-4.66,2.68-2.3,5.77.76,3.46,3.46-1.01,1.18-5.23,5.53-6.38,6.18-3.82,2.16-6.81-3.08-3.77-6.26,1.35-1.41,2.88-2.75,4.29-4.11,1.58-1.53,4.23-4.79,6.42-5.05Z"/>
</svg>