<?xml version="1.0" encoding="UTF-8"?>
<svg id="Layer_1" xmlns="http://www.w3.org/2000/svg" version="1.1" viewBox="0 0 20 20">
  <!-- Generator: Adobe Illustrator 30.0.0, SVG Export Plug-In . SVG Version: 2.1.1 Build 104)  -->
  <path d="M17.99,3.73c.26-.04.43.06.43.34l-2.84,10.39c-.05.13-.18.25-.32.25-1.83-.71-3.7-1.32-5.52-2.07-.32-.13-.7-.23-.42-.66l4.52-4.1c.1-.13.1-.29-.01-.42-.17-.19-.35-.08-.54,0-1.74.74-3.53,1.74-5.25,2.57-.72.35-1.45.7-2.17,1.03h-.16c-1.22-.59-2.63-.98-3.83-1.57-.37-.18-.42-.49-.02-.66L17.99,3.73Z"/>
  <path d="M8.04,12.35c-.09.11-.06.24.05.32l2.33,1.17c.08.05.1.16.05.24l-2.06,1.97c-.23.2-.47.39-.62,0-.27-1.21-.84-2.46-1.09-3.66-.08-.4,0-.67.33-.92,1.14-.57,2.25-1.3,3.39-1.85.2-.1.52-.29.43.12l-2.8,2.63Z"/>
</svg>