<?xml version="1.0" encoding="UTF-8"?>
<svg id="Layer_1" xmlns="http://www.w3.org/2000/svg" version="1.1" xmlns:xlink="http://www.w3.org/1999/xlink" viewBox="0 0 154 32">
  <!-- Generator: Adobe Illustrator 30.0.0, SVG Export Plug-In . SVG Version: 2.1.1 Build 104)  -->
  <defs>
    <style>
      .st0 {
        fill: url(#linear-gradient2);
      }

      .st1 {
        fill: url(#linear-gradient10);
      }

      .st2 {
        fill: #fff;
      }

      .st3 {
        fill: url(#linear-gradient1);
      }

      .st4 {
        fill: url(#linear-gradient9);
      }

      .st5 {
        fill: url(#linear-gradient18);
      }

      .st6 {
        fill: url(#linear-gradient8);
      }

      .st7 {
        fill: url(#linear-gradient11);
      }

      .st8 {
        fill: url(#linear-gradient16);
      }

      .st9 {
        fill: url(#linear-gradient12);
      }

      .st10 {
        fill: url(#linear-gradient7);
      }

      .st11 {
        fill: url(#linear-gradient4);
      }

      .st12 {
        fill: url(#linear-gradient14);
      }

      .st13 {
        fill: url(#linear-gradient5);
      }

      .st14 {
        fill: url(#linear-gradient3);
      }

      .st15 {
        fill: #101828;
      }

      .st16 {
        fill: url(#linear-gradient15);
      }

      .st17 {
        fill: url(#linear-gradient17);
      }

      .st18 {
        fill: url(#linear-gradient6);
      }

      .st19 {
        fill: url(#linear-gradient13);
      }

      .st20 {
        fill: url(#linear-gradient);
      }
    </style>
    <linearGradient id="linear-gradient" x1="29.8" y1="43.53" x2="1.68" y2="15.42" gradientUnits="userSpaceOnUse">
      <stop offset="0" stop-color="#e3d2a1"/>
      <stop offset=".27" stop-color="#f8b02f"/>
      <stop offset=".66" stop-color="#cc7a62"/>
      <stop offset="1" stop-color="#4c7b92"/>
    </linearGradient>
    <linearGradient id="linear-gradient1" x1="38.2" y1="35.13" x2="10.09" y2="7.01" xlink:href="#linear-gradient"/>
    <linearGradient id="linear-gradient2" x1="35.56" y1="37.78" x2="7.44" y2="9.66" xlink:href="#linear-gradient"/>
    <linearGradient id="linear-gradient3" x1="33.32" y1="40.02" x2="5.2" y2="11.9" xlink:href="#linear-gradient"/>
    <linearGradient id="linear-gradient4" x1="41.22" y1="32.11" x2="13.11" y2="3.99" xlink:href="#linear-gradient"/>
    <linearGradient id="linear-gradient5" x1="39.76" y1="33.57" x2="11.64" y2="5.46" xlink:href="#linear-gradient"/>
    <linearGradient id="linear-gradient6" x1="47.65" y1="25.69" x2="19.53" y2="-2.43" xlink:href="#linear-gradient"/>
    <linearGradient id="linear-gradient7" x1="35.51" y1="37.83" x2="7.39" y2="9.71" xlink:href="#linear-gradient"/>
    <linearGradient id="linear-gradient8" x1="29.7" y1="43.63" x2="1.58" y2="15.52" xlink:href="#linear-gradient"/>
    <linearGradient id="linear-gradient9" x1="28.57" y1="44.76" x2=".45" y2="16.64" xlink:href="#linear-gradient"/>
    <linearGradient id="linear-gradient10" x1="39.76" y1="33.57" x2="11.64" y2="5.46" xlink:href="#linear-gradient"/>
    <linearGradient id="linear-gradient11" x1="47.65" y1="25.69" x2="19.53" y2="-2.43" xlink:href="#linear-gradient"/>
    <linearGradient id="linear-gradient12" x1="41.22" y1="32.11" x2="13.11" y2="3.99" xlink:href="#linear-gradient"/>
    <linearGradient id="linear-gradient13" x1="38.2" y1="35.13" x2="10.09" y2="7.01" xlink:href="#linear-gradient"/>
    <linearGradient id="linear-gradient14" x1="28.57" y1="44.76" x2=".45" y2="16.64" xlink:href="#linear-gradient"/>
    <linearGradient id="linear-gradient15" x1="29.7" y1="43.63" x2="1.58" y2="15.52" xlink:href="#linear-gradient"/>
    <linearGradient id="linear-gradient16" x1="33.32" y1="40.02" x2="5.2" y2="11.9" xlink:href="#linear-gradient"/>
    <linearGradient id="linear-gradient17" x1="35.56" y1="37.78" x2="7.44" y2="9.66" xlink:href="#linear-gradient"/>
    <linearGradient id="linear-gradient18" x1="35.51" y1="37.83" x2="7.39" y2="9.71" xlink:href="#linear-gradient"/>
  </defs>
  <path class="st15" d="M44-24.77h5.09v14.58h3.04v-14.58h5.09v-2.81h-13.22v2.81Z"/>
  <path class="st15" d="M60.62-9.89c1.83,0,3.42-.83,3.92-2.04l.21,1.74h2.54v-7.13c0-3.26-1.95-4.97-5.11-4.97s-5.28,1.66-5.28,4.21h2.47c0-1.24.95-1.95,2.66-1.95,1.47,0,2.43.64,2.43,2.24v.26l-3.52.26c-2.78.21-4.35,1.57-4.35,3.73s1.52,3.66,4.02,3.66ZM61.57-12.08c-1.31,0-2.02-.52-2.02-1.59,0-.95.69-1.55,2.5-1.71l2.45-.19v.62c0,1.81-1.14,2.88-2.92,2.88Z"/>
  <path class="st15" d="M71.6-24.3c.95,0,1.74-.78,1.74-1.76s-.78-1.74-1.74-1.74c-1,0-1.78.76-1.78,1.74s.78,1.76,1.78,1.76ZM70.15-10.2h2.9v-11.75h-2.9v11.75Z"/>
  <path class="st15" d="M78.97-10.2v-17.69h-2.88V-10.2h2.88Z"/>
  <path class="st15" d="M83.94-10.2l1.4-4.02h6.49l1.4,4.02h3.21l-6.28-17.38h-3.11l-6.28,17.38h3.16ZM88.22-22.4c.17-.48.31-1,.38-1.33.05.36.21.88.36,1.33l2,5.61h-4.71l1.97-5.61Z"/>
  <path class="st15" d="M102.49-9.89c1.78,0,3.31-.78,4.02-2.14l.19,1.83h2.66v-17.69h-2.88v7.44c-.74-1.17-2.19-1.85-3.83-1.85-3.54,0-5.68,2.62-5.68,6.28s2.12,6.13,5.52,6.13ZM103.14-12.55c-2.02,0-3.26-1.47-3.26-3.57s1.24-3.59,3.26-3.59,3.33,1.47,3.33,3.59-1.31,3.57-3.33,3.57Z"/>
  <path class="st15" d="M115.29-10.2v-6.66c0-1.9,1.12-2.81,2.5-2.81s2.26.88,2.26,2.52v6.94h2.9v-6.66c0-1.93,1.07-2.83,2.47-2.83s2.28.88,2.28,2.57v6.92h2.88v-7.68c0-2.71-1.57-4.42-4.42-4.42-1.78,0-3.16.88-3.76,2.24-.62-1.36-1.86-2.24-3.64-2.24-1.69,0-2.88.76-3.47,1.74l-.24-1.38h-2.66v11.75h2.9Z"/>
  <path class="st15" d="M134.88-24.3c.95,0,1.74-.78,1.74-1.76s-.79-1.74-1.74-1.74c-1,0-1.78.76-1.78,1.74s.78,1.76,1.78,1.76ZM133.43-10.2h2.9v-11.75h-2.9v11.75Z"/>
  <path class="st15" d="M142.23-10.2v-6.33c0-1.9,1.09-3.14,2.88-3.14,1.5,0,2.47.95,2.47,2.92v6.54h2.9v-7.23c0-3.04-1.52-4.87-4.47-4.87-1.59,0-3.02.69-3.76,1.88l-.24-1.52h-2.69v11.75h2.9Z"/>
  <g>
    <path d="M33.19,24.36v-14.93h3.16v6.16h6.41v-6.16h3.15v14.93h-3.15v-6.17h-6.41v6.17h-3.16Z"/>
    <path d="M53.81,24.36h-5.29v-14.93h5.34c1.5,0,2.79.3,3.88.89,1.08.6,1.92,1.45,2.5,2.56.59,1.11.88,2.45.88,4s-.29,2.89-.88,4.01c-.59,1.12-1.42,1.98-2.52,2.57-1.09.6-2.4.9-3.91.9ZM51.67,21.65h2.01c.93,0,1.72-.17,2.36-.5s1.12-.85,1.44-1.55c.32-.7.48-1.61.48-2.72s-.16-2-.48-2.71c-.32-.7-.8-1.21-1.44-1.55-.64-.33-1.42-.5-2.35-.5h-2.01v9.52Z"/>
    <path d="M63.44,24.36v-14.93h5.89c1.13,0,2.1.21,2.89.65.8.43,1.41,1.03,1.83,1.79.42.76.63,1.64.63,2.63s-.21,1.87-.64,2.62c-.43.76-1.05,1.35-1.86,1.77-.81.42-1.79.63-2.93.63h-3.75v-2.53h3.24c.61,0,1.11-.11,1.51-.32.4-.21.69-.5.89-.88.2-.38.3-.81.3-1.3s-.1-.93-.3-1.3c-.2-.37-.49-.66-.89-.87s-.9-.31-1.52-.31h-2.13v12.35h-3.16Z"/>
    <path d="M84.87,24.36l-4.27-14.93h3.45l2.47,10.37h.12l2.73-10.37h2.95l2.72,10.4h.13l2.47-10.4h3.45l-4.27,14.93h-3.08l-2.84-9.76h-.12l-2.84,9.76h-3.08Z"/>
    <path d="M106.56,24.58c-1.13,0-2.11-.24-2.93-.73-.82-.48-1.46-1.16-1.91-2.03-.45-.87-.67-1.87-.67-3.02s.22-2.17.67-3.04c.45-.87,1.08-1.54,1.91-2.03.82-.48,1.8-.73,2.93-.73s2.11.24,2.93.73c.82.48,1.46,1.16,1.91,2.03.45.87.67,1.88.67,3.04s-.22,2.15-.67,3.02c-.45.87-1.08,1.54-1.91,2.03-.82.48-1.8.73-2.93.73ZM106.58,22.17c.51,0,.95-.15,1.29-.44.34-.29.61-.7.78-1.21.18-.51.27-1.09.27-1.74s-.09-1.23-.27-1.74c-.18-.51-.44-.91-.78-1.21s-.78-.45-1.29-.45-.96.15-1.31.45-.62.7-.79,1.21c-.18.51-.27,1.09-.27,1.74s.09,1.23.27,1.74c.18.51.44.91.79,1.21.35.29.79.44,1.31.44Z"/>
    <path d="M114.1,24.36v-11.2h3.01v1.95h.12c.2-.69.55-1.22,1.03-1.58.48-.36,1.04-.54,1.66-.54.16,0,.32,0,.5.03s.34.05.47.08v2.76c-.15-.04-.35-.08-.6-.12s-.49-.05-.71-.05c-.46,0-.86.1-1.22.3-.36.2-.64.47-.85.82-.21.35-.31.75-.31,1.21v6.34h-3.11Z"/>
    <path d="M122.49,24.36v-14.93h3.11v14.93h-3.11ZM125.31,21.13v-3.73h.46l3.59-4.25h3.57l-4.82,5.63h-.74l-2.06,2.35ZM129.49,24.36l-3.3-4.88,2.07-2.19,4.86,7.07h-3.64Z"/>
    <path d="M143.75,16.35l-2.84.18c-.05-.24-.15-.46-.31-.66-.16-.2-.37-.35-.63-.47-.26-.12-.57-.18-.93-.18-.48,0-.89.1-1.22.3-.33.2-.5.47-.5.81,0,.27.11.49.32.68s.58.33,1.1.44l2.03.41c1.09.22,1.9.58,2.44,1.08.53.5.8,1.15.8,1.95,0,.73-.21,1.38-.65,1.93-.43.55-1.02.99-1.76,1.29s-1.6.46-2.58.46c-1.48,0-2.66-.31-3.54-.93-.88-.62-1.39-1.46-1.54-2.53l3.05-.16c.09.45.32.8.67,1.03.35.24.81.35,1.36.35s.98-.11,1.32-.32c.33-.21.5-.48.51-.82,0-.28-.12-.51-.36-.7-.23-.18-.59-.32-1.08-.42l-1.94-.39c-1.09-.22-1.91-.6-2.44-1.14-.53-.54-.8-1.23-.8-2.06,0-.72.2-1.34.59-1.86.39-.52.94-.92,1.65-1.2.71-.28,1.55-.42,2.5-.42,1.41,0,2.53.3,3.34.9.81.6,1.29,1.41,1.43,2.44Z"/>
  </g>
  <polygon class="st2" points="75.53 55.72 75.53 59.99 71.43 59.99 71.43 55.72 68.79 55.72 68.79 66.58 71.43 66.58 71.43 62.35 75.53 62.35 75.53 66.58 78.16 66.58 78.16 55.72 75.53 55.72"/>
  <path class="st2" d="M89.5,58.96c-.26-.66-.63-1.24-1.11-1.72-.48-.49-1.05-.86-1.71-1.12-.66-.26-1.39-.4-2.19-.4h-4.55v10.86h4.55c.8,0,1.53-.13,2.19-.4.66-.26,1.23-.64,1.71-1.12s.85-1.05,1.11-1.72c.26-.67.39-1.4.39-2.19s-.13-1.53-.39-2.19ZM87.02,62.42c-.13.38-.32.71-.57.98-.24.27-.54.48-.88.63-.34.15-.73.22-1.16.22h-1.83v-6.21h1.83c.43,0,.82.08,1.16.22.34.15.63.36.88.63.24.27.43.59.57.98.13.38.2.81.2,1.27s-.07.89-.2,1.27Z"/>
  <path class="st2" d="M90.99,66.58v-10.86h4.68c.68,0,1.29.16,1.82.47.53.31.96.73,1.27,1.27.32.54.47,1.14.47,1.81s-.16,1.33-.47,1.88c-.32.55-.74.99-1.27,1.31-.53.32-1.14.48-1.82.48h-2.05v3.63h-2.64ZM93.58,60.64h1.72c.23,0,.43-.06.62-.17.19-.11.34-.27.45-.47.11-.2.17-.42.17-.68s-.06-.5-.17-.68c-.11-.19-.26-.33-.45-.43-.19-.1-.39-.16-.62-.16h-1.72v2.59Z"/>
  <path class="st2" d="M72.39,78.91c-.71,0-1.36-.09-1.93-.26-.57-.17-1.08-.42-1.53-.74-.44-.33-.84-.71-1.19-1.16l1.6-1.82c.52.69,1.04,1.16,1.56,1.4.52.24,1.06.36,1.62.36.28,0,.53-.04.76-.11.23-.07.4-.18.53-.32.12-.14.19-.31.19-.52,0-.16-.04-.29-.12-.42-.08-.12-.18-.23-.32-.33-.13-.09-.29-.18-.48-.26-.19-.08-.38-.14-.59-.2-.21-.06-.42-.11-.64-.15-.6-.13-1.12-.3-1.57-.5-.44-.2-.81-.44-1.11-.72-.29-.28-.51-.61-.66-.98-.14-.37-.22-.78-.22-1.23,0-.49.11-.93.33-1.34.22-.41.52-.76.9-1.05.38-.29.81-.52,1.31-.68.5-.16,1.01-.24,1.55-.24.71,0,1.33.07,1.84.22s.95.36,1.32.64c.37.28.68.62.94,1.01l-1.63,1.57c-.22-.27-.45-.49-.71-.67-.25-.18-.52-.31-.81-.4-.28-.09-.58-.14-.88-.14s-.58.04-.8.12c-.22.08-.4.19-.52.33-.12.14-.19.31-.19.5,0,.18.05.33.16.45.1.12.24.24.42.33.18.1.38.18.6.25.23.07.47.12.71.16.57.11,1.08.26,1.54.45.46.19.86.41,1.19.68.34.27.59.59.78.95.18.37.27.79.27,1.28,0,.75-.18,1.39-.55,1.92-.37.52-.87.92-1.5,1.19s-1.37.41-2.2.41Z"/>
  <path class="st2" d="M80.06,78.76v-8.53h-3.23v-2.33h9.17v2.33h-3.3v8.53h-2.64Z"/>
  <path class="st2" d="M91.5,78.85c-.9,0-1.7-.18-2.4-.55-.7-.37-1.25-.87-1.65-1.51-.4-.64-.6-1.38-.6-2.2v-6.69h2.67v6.55c0,.39.09.75.26,1.06.18.32.41.56.71.74.3.18.64.27,1.01.27.39,0,.74-.09,1.05-.27.3-.18.55-.43.74-.74.19-.32.28-.67.28-1.06v-6.55h2.58v6.69c0,.83-.2,1.56-.6,2.2-.4.64-.95,1.15-1.65,1.51-.7.37-1.5.55-2.39.55Z"/>
  <path class="st2" d="M97.87,78.76v-10.86h4.55c.8,0,1.53.13,2.19.4.66.26,1.23.64,1.71,1.12.48.49.85,1.06,1.11,1.72.26.66.39,1.39.39,2.19s-.13,1.53-.39,2.2c-.26.67-.63,1.24-1.11,1.72s-1.05.85-1.71,1.12c-.66.26-1.39.4-2.19.4h-4.55ZM100.5,76.96l-.36-.53h2.19c.43,0,.82-.08,1.16-.22.34-.15.63-.36.88-.63.24-.27.43-.59.57-.98.13-.38.2-.81.2-1.27s-.07-.89-.2-1.27c-.13-.38-.32-.71-.57-.98-.24-.27-.54-.48-.88-.63-.34-.15-.73-.22-1.16-.22h-2.23l.4-.5v7.23Z"/>
  <path class="st2" d="M108.46,78.76v-2.22h1.83v-6.42h-1.83v-2.22h6.31v2.22h-1.85v6.42h1.85v2.22h-6.31Z"/>
  <path class="st2" d="M121.07,78.91c-.83,0-1.58-.14-2.26-.42s-1.28-.67-1.78-1.18c-.51-.51-.9-1.1-1.18-1.78-.28-.68-.42-1.43-.42-2.25s.14-1.57.42-2.25c.28-.68.67-1.28,1.18-1.78s1.1-.9,1.78-1.18c.68-.28,1.43-.42,2.25-.42s1.57.14,2.25.42c.68.28,1.28.67,1.78,1.18.51.51.9,1.1,1.17,1.78s.41,1.43.41,2.25-.14,1.55-.41,2.24-.66,1.29-1.17,1.79c-.51.51-1.1.9-1.78,1.18-.68.28-1.43.42-2.23.42ZM121.06,76.43c.42,0,.81-.08,1.17-.23.36-.16.67-.37.93-.66.26-.28.47-.62.61-1,.14-.38.22-.8.22-1.26s-.07-.87-.22-1.26c-.14-.38-.35-.72-.61-1-.26-.28-.57-.5-.93-.66-.36-.16-.75-.23-1.17-.23s-.81.08-1.17.23c-.36.16-.67.37-.94.66-.27.28-.47.62-.61,1-.14.38-.21.8-.21,1.26s.07.88.21,1.26c.14.39.34.72.61,1,.27.28.58.5.94.65.36.16.75.23,1.17.23Z"/>
  <g>
    <g>
      <path class="st20" d="M7.13,22.24c-.05.78-.33,1.61-.76,2.38v-9.02c.09,2.2.88,4.55.76,6.64Z"/>
      <path class="st3" d="M25.13,11.28v3.32c-.32-.38-.61-.75-.82-1.06-1.72-2.51-2.92-4.89-6.04-5.94-4.65-1.56-9.64.76-11.48,5.25-.25.62-.37,1.28-.4,1.95v-5.18c3.9-5.21,11.96-6.15,16.78-1.04.78.83,1.38,1.77,1.97,2.7Z"/>
      <path class="st0" d="M12.85,16.25c-.49,2.1,1.47,4.65,2.76,6.16,1.84,2.15,4.16,4.22,6.37,5.99.72.57,1.66,1.16,2.31,1.78.22.21.34.44.37.65h-2.74c-.38-.3-.75-.6-1.08-.87-2.02-1.61-4.04-3.39-5.8-5.28-1.65-1.77-4.05-4.77-4.21-7.25-.22-3.27,2.47-6.25,5.85-5.21,2.69.83,3.13,3.24,4.47,5.34,1.05,1.65,2.46,2.92,3.97,4.08v2.42c-2.19-1.57-4.24-3.28-5.7-5.62-.59-.94-1.01-1.96-1.56-2.9-1.43-2.39-4.35-2.08-5,.7Z"/>
      <path class="st14" d="M25.13,17.05v2.62c-.5-.42-.97-.86-1.42-1.33-.31-.32-.62-.64-.9-.99-1.05-1.32-1.54-2.94-2.58-4.29-2.06-2.66-5.49-3.49-8.31-1.41-4.38,3.23-.93,7.8-1.44,12.02-.25,2.03-1.12,4.27-2.88,5.43-.27.18-.76.45-1.22.64v-2.2c.41-.22.78-.51,1.19-1.14,2.47-3.85-.51-7.89.31-11.94.41-2.06,1.81-3.79,3.59-4.84,3.86-2.25,8.11-.84,10.6,2.63.99,1.38,1.44,2.93,2.56,4.23.16.19.33.37.51.55Z"/>
      <path class="st11" d="M25.13,5.78v2.94c-2.21-2.83-4.69-4.52-8.48-4.89-4.16-.4-7.46,1.03-10.27,3.66v-2.57c.16-.12.3-.23.44-.32,5.48-3.89,13.27-3.83,18.15,1.01.05.05.11.11.17.17Z"/>
      <path class="st13" d="M10.44,1.17c-1.18.4-2.31.93-3.34,1.59-.16.1-.43.3-.73.52V1.17h4.07Z"/>
      <path class="st18" d="M25.13,1.17v2.27c-1.18-1-2.54-1.75-4-2.27h4Z"/>
      <path class="st10" d="M25.13,26.4v2.43c-1.82-1.29-3.6-2.82-5.19-4.38-1.75-1.71-3.54-3.7-4.76-5.83-.3-.52-.85-1.42-.75-2.03.11-.76,1.22-.98,1.67-.38.35.45.68,1.3,1.02,1.85,1.93,3.15,5.11,6.08,8.02,8.34Z"/>
      <path class="st6" d="M20.3,30.83h-2.96c-.35-.2-.71-.33-1.02-.23-.15.05-.29.13-.42.23h-2.42c.68-1.29,1.86-2.31,3.42-2.19,1.05.08,2.09.93,2.83,1.63.14.13.36.34.56.56Z"/>
      <path class="st4" d="M11.9,30.83h-2.84c.27-.38.76-.69,1.06-.98,1.24-1.18,2.17-2.72,1.64-4.5-.16-.55-.62-1.12-.08-1.66.09-.09.3-.21.42-.25.92-.3,1.34.7,1.54,1.41.64,2.27-.22,4.36-1.74,5.98Z"/>
    </g>
    <path class="st1" d="M7.1,2.76c-.16.1-.43.3-.73.52V1.17h4.07c-1.18.4-2.31.93-3.34,1.59Z"/>
    <path class="st7" d="M25.13,1.17v2.27c-1.18-1-2.54-1.75-4-2.27h4Z"/>
    <path class="st9" d="M25.13,5.78v2.94c-2.21-2.83-4.69-4.52-8.48-4.89-4.16-.4-7.46,1.03-10.27,3.66v-2.57c.16-.12.3-.23.44-.32,5.48-3.89,13.27-3.83,18.15,1.01.05.05.11.11.17.17Z"/>
    <path class="st20" d="M7.13,22.24c-.05.78-.33,1.61-.76,2.38v-9.02c.09,2.2.88,4.55.76,6.64Z"/>
    <path class="st19" d="M25.13,11.28v3.32c-.32-.38-.61-.75-.82-1.06-1.72-2.51-2.92-4.89-6.04-5.94-4.65-1.56-9.64.76-11.48,5.25-.25.62-.37,1.28-.4,1.95v-5.18c3.9-5.21,11.96-6.15,16.78-1.04.78.83,1.38,1.77,1.97,2.7Z"/>
    <path class="st12" d="M11.9,30.83h-2.84c.27-.38.76-.69,1.06-.98,1.24-1.18,2.17-2.72,1.64-4.5-.16-.55-.62-1.12-.08-1.66.09-.09.3-.21.42-.25.92-.3,1.34.7,1.54,1.41.64,2.27-.22,4.36-1.74,5.98Z"/>
    <path class="st16" d="M20.3,30.83h-2.96c-.35-.2-.71-.33-1.02-.23-.15.05-.29.13-.42.23h-2.42c.68-1.29,1.86-2.31,3.42-2.19,1.05.08,2.09.93,2.83,1.63.14.13.36.34.56.56Z"/>
    <path class="st8" d="M25.13,17.05v2.62c-.5-.42-.97-.86-1.42-1.33-.31-.32-.62-.64-.9-.99-1.05-1.32-1.54-2.94-2.58-4.29-2.06-2.66-5.49-3.49-8.31-1.41-4.38,3.23-.93,7.8-1.44,12.02-.25,2.03-1.12,4.27-2.88,5.43-.27.18-.76.45-1.22.64v-2.2c.41-.22.78-.51,1.19-1.14,2.47-3.85-.51-7.89.31-11.94.41-2.06,1.81-3.79,3.59-4.84,3.86-2.25,8.11-.84,10.6,2.63.99,1.38,1.44,2.93,2.56,4.23.16.19.33.37.51.55Z"/>
    <path class="st17" d="M25.13,21.65v2.42c-2.19-1.57-4.24-3.28-5.7-5.62-.59-.94-1.01-1.96-1.56-2.9-1.43-2.39-4.35-2.08-5,.7-.49,2.1,1.47,4.65,2.76,6.16,1.84,2.15,4.16,4.22,6.37,5.99.72.57,1.66,1.16,2.31,1.78.22.21.34.44.37.65h-2.74c-.38-.3-.75-.6-1.08-.87-2.02-1.61-4.04-3.39-5.8-5.28-1.65-1.77-4.05-4.77-4.21-7.25-.22-3.27,2.47-6.25,5.85-5.21,2.69.83,3.13,3.24,4.47,5.34,1.05,1.65,2.46,2.92,3.97,4.08Z"/>
    <path class="st5" d="M25.13,26.4v2.43c-1.82-1.29-3.6-2.82-5.19-4.38-1.75-1.71-3.54-3.7-4.76-5.83-.3-.52-.85-1.42-.75-2.03.11-.76,1.22-.98,1.67-.38.35.45.68,1.3,1.02,1.85,1.93,3.15,5.11,6.08,8.02,8.34Z"/>
  </g>
</svg>